Coordinates
version=1
nRows=12
nColumns=23
inDegrees=yes

Units are S.I. units (second, meters, Newtons, ...)
If the header above contains a line with 'inDegrees', this indicates whether rotational values are in degrees (yes) or radians (no).

endheader
time	pelvis_tilt	pelvis_list	pelvis_rotation	pelvis_tx	pelvis_ty	pelvis_tz	hip_flexion_r	hip_adduction_r	hip_rotation_r	knee_angle_r	knee_angle_r_beta	ankle_angle_r	subtalar_angle_r	mtp_angle_r	hip_flexion_l	hip_adduction_l	hip_rotation_l	knee_angle_l	knee_angle_l_beta	ankle_angle_l	subtalar_angle_l	mtp_angle_l
     22.50000000	     -8.74715575	      3.15377722	      4.75418639	      2.25648659	      0.96672132	      1.00024309	     46.48911878	     -7.47466442	     -1.67098606	     94.88855476	      1.65611770	     -0.68819922	     -8.04008905	      0.00000000	      4.28855787	      4.81416306	     -3.43876368	     32.55837139	      0.56825078	     25.38406590	      1.40840211	      0.00000000
     22.50666667	     -8.13579335	      2.00725350	      4.47646160	      2.25941423	      0.97123603	      1.00044916	     46.56590705	     -6.25561981	     -2.57476625	     91.81766720	      1.60252060	      0.02485452	     -7.37387135	      0.00000000	      0.50970847	      3.34011264	     -3.69320384	     29.75114070	      0.51925536	     22.49646544	      1.78940010	      0.00000000
     22.51333333	     -8.44513151	      1.06344011	      4.29796568	      2.26195454	      0.97442403	      1.00065811	     47.60803972	     -5.28699095	     -3.31937731	     88.65570631	      1.54733398	      0.60892820	     -6.95703246	      0.00000000	     -2.02856215	      2.21876414	     -3.80671946	     27.29462061	      0.47638100	     19.36826379	      2.03839862	      0.00000000
     22.52000000	     -8.96772845	      0.34748292	      3.97432055	      2.26445672	      0.97728176	      1.00115664	     48.79279989	     -4.43225028	     -3.85781479	     85.33723616	      1.48941575	      1.17829840	     -6.61792438	      0.00000000	     -4.27701511	      1.39169519	     -4.04308271	     24.83869933	      0.43351709	     15.68991074	      2.06933012	      0.00000000
     22.52666667	     -9.77074382	     -0.11901608	      3.44389097	      2.26678040	      0.97961635	      1.00206439	     50.21333535	     -3.61152016	     -4.10583132	     81.88033539	      1.42908145	      1.73110289	     -6.36538141	      0.00000000	     -6.08115354	      0.85464864	     -4.58099555	     22.57964112	      0.39408908	     11.71910114	      2.21403581	      0.00000000
     22.53333333	    -10.60683274	     -0.52051483	      2.96613197	      2.26906177	      0.98187712	      1.00294369	     51.47509385	     -2.91383003	     -4.44887937	     78.18360442	      1.36456132	      2.22427798	     -6.16383521	      0.00000000	     -7.65834194	      0.39884135	     -5.03911113	     20.56564043	      0.35893814	      7.46878493	      2.18062359	      0.00000000
     22.54000000	    -11.41195245	     -0.83330090	      2.54406825	      2.27123186	      0.98420459	      1.00378312	     52.50368834	     -2.35141026	     -4.86993612	     74.23421468	      1.29563146	      2.70636047	     -5.92711464	      0.00000000	     -9.09676798	      0.08924312	     -5.13611558	     18.74776438	      0.32721022	      3.00342171	      1.63583369	      0.00000000
     22.54666667	    -12.82644463	     -0.81619660	      2.05302995	      2.27290513	      0.98522373	      1.00473869	     54.15283001	     -2.03849533	     -5.09224983	     70.25546258	      1.22618914	      3.24311339	     -5.48702251	      0.00000000	     -9.33483033	     -0.02093980	     -5.97961412	     17.97432253	      0.31371111	     -0.91725019	      2.21242738	      0.00000000
     22.55333333	    -13.36697609	     -0.79710993	      1.32194371	      2.27471679	      0.98748632	      1.00606811	     54.60128917	     -1.41468803	     -5.20715269	     65.90765802	      1.15030563	      3.72895552	     -5.20770813	      0.00000000	    -10.68568163	      0.07469847	     -6.13387523	     16.72638375	      0.29193047	     -5.37741131	      1.45203066	      0.00000000
     22.56000000	    -14.38309843	     -0.56670168	      0.68204662	      2.27605207	      0.98866037	      1.00725071	     55.45484809	     -1.11874509	     -5.43506195	     61.49849351	      1.07335120	      4.32034841	     -4.30775477	      0.00000000	    -10.89707683	      0.23703127	     -6.69550776	     16.67243857	      0.29098895	     -9.11316438	      1.33622220	      0.00000000
     22.56666667	    -14.89342693	     -0.44192475	      0.18623245	      2.27745971	      0.99044593	      1.00812859	     55.49972771	     -0.89777936	     -6.01072258	     56.85603681	      0.99232504	      5.08954536	     -3.15837832	      0.00000000	    -11.54308342	      0.37001944	     -6.52750267	     16.72228852	      0.29185899	    -12.61647305	      0.59557642	      0.00000000
     22.57333333	    -15.38587547	     -0.24230579	     -0.33099054	      2.27858186	      0.99180857	      1.00905757	     55.39312204	     -0.71402186	     -6.66497569	     52.15405445	      0.91025997	      5.96310254	     -1.51796868	      0.00000000	    -11.79896050	      0.53617412	     -6.46491770	     17.55449529	      0.30638374	    -15.47513341	      0.03381749	      0.00000000
